<?xml version="1.0" encoding="utf-8"?>
<svg id="svg8" width="500px" height="500px" viewBox="214 30 154 83" xmlns="http://www.w3.org/2000/svg">
  <path id="path2" style="fill:#868789;fill-rule:evenodd" d="m 248.8094,74.3589 -0.3824,-0.8115 -0.2513,-1.2277 -0.4153,-0.8755 0.0328,-0.7153 -0.295,-0.1601 -0.1203,-0.3097 0.0328,-0.1922 -0.1639,-0.0534 -0.2841,-1.3452 0.0218,-0.6619 -0.2841,-0.8756 -0.1312,-0.1814 -0.0874,-0.1601 -0.1967,-0.0642 -0.1311,0.0321 -0.3169,0.3096 -1.7593,2.2208 -0.5792,0.4057 -1.2131,1.7509 -0.0655,0.2242 -0.0656,0.2456 0.9617,0.3523 1.6938,0.3737 0.2295,0.1174 0.0983,0.032 0.0875,0.0321 0.2623,-0.0321 v 0.1281 l 0.9943,0.4378 0.2842,0.1921 0.4153,0.2136 1.1474,1.0997 0.1639,0.0961 0.1311,0.0214 0.153,-0.0535 0.1312,-0.2242 z m 10.5345,14.5735 -1.1147,0.8755 -0.6119,0.064 -0.2514,0.1921 h -0.1638 v 0.0854 l -0.612,0.2884 -0.3497,-0.0642 -0.8961,-1.5694 -0.3497,-0.1815 -0.6119,-0.758 0.2295,-0.3096 -0.0328,-0.1815 -0.1967,-0.3524 v -0.0854 l -0.3826,-0.4163 -0.3169,-0.9929 -3.169,-5.9789 -0.448,-0.4697 -0.8633,-0.5019 -0.2295,-0.2776 -2.2402,-1.3131 -1.6938,-1.4094 -0.3278,-0.1815 -0.0874,-0.1281 -1.8578,-0.6299 -0.7759,-0.0641 -0.0874,-0.1174 -0.3278,-0.0321 -1.3114,-0.1281 -0.6666,0.4057 -0.7431,1.3133 -0.1857,0.2242 -0.164,0.2455 -0.0983,0.1602 -0.3825,0.5872 -0.1857,0.1601 -0.0329,0.1601 -0.2294,0.4378 -0.2841,0.7474 -0.5792,0.5017 -0.3169,1.0037 -0.5136,0.7474 -0.2623,0.4057 -0.1203,0.1921 -0.4152,1.0891 -0.896,1.6548 v 0.2882 l -0.3935,0.8114 -0.1202,0.7474 -0.4481,0.8434 -0.0655,0.8435 0.3169,1.1958 -0.1857,0.6832 -0.9071,1.4094 -0.2185,0.1281 -0.3169,0.1495 -0.1639,0.032 -0.3497,-0.032 -0.4809,-0.1174 -1.3769,-2.0073 v -0.3095 l 0.1312,-0.1923 0.2841,-0.2455 0.1639,-0.7153 0.5355,-0.7261 0.2622,-0.5338 0.1859,-0.2776 0.0327,-0.2242 0.7759,-1.8363 1.5627,-2.6264 0.1639,-0.1602 0.0328,-0.064 0.6338,-1.783 1.0928,-1.3133 0.0327,-0.4697 0.1639,-0.0641 0.5355,-0.5338 0.1312,-0.6833 -0.0656,-0.2776 0.0656,-0.6619 -0.5464,-0.8435 -0.3825,-0.0641 -0.1858,-0.1921 -0.1639,-0.2136 -0.0328,-0.1921 0.0328,-0.1815 0.2841,-0.1922 0.3607,-0.0962 0.3824,-0.4376 0.4809,0.032 0.448,-0.5872 0.1858,-0.0641 0.4479,-0.2242 h 0.4154 l 0.3278,-0.032 0.7322,-0.2136 0.4807,-0.064 0.3826,-0.5979 0.896,-0.8114 0.5792,-0.9075 1.6938,-1.751 0.4809,-0.9716 0.3169,0.0641 1.6063,-1.815 0.4481,-0.2776 0.3497,-0.2775 -0.0328,-0.9396 -0.2514,-1.3453 0.0656,-0.9395 0.1202,-0.064 -0.1202,-0.0961 -0.1639,-0.6192 -0.0327,-0.4165 v -0.6833 l -0.0657,-0.3096 v -0.5338 l -0.1529,-0.8435 -0.0328,-0.2882 0.0328,-0.2135 0.1529,-0.3417 -0.1857,-0.1601 0.0874,-1.4093 -0.1202,-0.3737 -0.1312,-1.9965 v -0.6299 l -0.1967,-0.3417 -0.0546,-1.4414 0.8961,-0.3095 0.153,-0.1281 0.0983,-0.0962 0.0984,-0.4377 0.6994,-0.3096 0.2295,-0.3096 1.1474,0.3736 0.4808,1.4627 0.1639,1.6655 0.0328,0.4058 0.0327,0.3737 0.317,3.598 -0.0984,0.1815 0.0328,0.4163 0.0656,2.1567 0.1967,0.8114 -0.0656,0.1815 0.1203,0.3203 1.8904,-1.4093 0.0985,-0.0961 0.2841,-0.0961 1.8249,-1.2171 0.2295,-0.1602 h 0.3497 l 0.1967,-0.032 0.0328,-0.0534 0.1529,-0.1601 0.3278,-0.5018 0.9508,-0.1815 -0.0219,0.8434 -0.3606,-0.0961 -0.448,0.4699 -0.1531,0.1494 -0.1638,-0.0534 -1.2131,1.3986 -0.1311,0.1281 -0.4481,0.1602 -0.4479,0.1174 -0.2295,0.2563 -0.2186,0.1921 -0.9944,1.025 -0.1858,0.1601 -0.2951,0.2776 -0.5464,0.4698 -0.0327,1.4734 -0.0547,0.2455 0.0547,0.2562 v 0.6514 l 0.3278,0.6619 0.0655,0.8114 0.1531,0.3736 0.0327,0.4378 0.4481,1.0036 1.3113,4.8472 0.6448,1.4092 0.7649,2.3168 0.1967,0.3738 0.0983,0.2455 1.0491,2.5944 0.4153,0.5338 0.5791,0.3737 0.2843,1.0677 0.0983,0.032 0.0327,0.3416 0.1968,0.8435 1.3112,2.2207 0.0657,0.0321 0.3169,0.5978 0.2512,0.4378 0.7759,1.2491 0.0656,0.2776 -0.0656,0.2562 z m 11.1136,5.1567 0.6339,0.6299 v 0.3417 l -2.2402,-0.6833 -0.3826,-0.2883 -0.6665,-0.1174 -0.2951,-0.2883 -0.0983,-0.0854 -0.3826,-0.5979 -0.2184,-0.1601 -0.164,-0.1495 -0.2186,-0.4057 -0.6119,-0.5658 -0.0328,-0.2563 -1.8578,-1.121 -0.3169,-0.4057 -0.4152,-1.2172 0.2186,-0.9075 -0.153,-0.096 0.0874,-0.3738 -0.0656,-0.064 -0.1529,-2.3168 0.2513,-1.0036 0.0656,-1.6869 -0.0328,-0.1922 0.1639,-0.2135 0.2186,-1.6228 -0.0328,-2.5091 h -0.0874 l -0.0984,-1.5907 0.2513,-2.0072 -0.1858,-0.4377 -0.0655,-5.8721 -0.1639,-0.6941 0.2294,-1.4412 0.1531,-3.6514 -0.0328,-0.1602 0.1311,-0.5979 v -4.6229 l 0.1639,-0.758 -0.2295,-1.1852 -0.0327,-2.5623 -0.0874,-0.2242 -0.1312,-0.2776 -0.0983,-0.2562 h -0.1312 l 0.0656,-2.1887 v -0.3096 l 0.1966,-0.6834 -0.4479,-0.9395 V 46.429 l -0.0656,-0.096 -0.0656,-0.5339 -0.0328,-0.9715 -0.0655,-0.5339 0.0327,-0.1494 0.1968,-0.2882 0.1201,-0.1496 0.8742,-0.8755 0.6338,-0.096 0.4153,-0.1282 v -0.096 l 0.164,-0.032 0.2513,-0.0214 0.2295,0.2776 -0.0328,0.096 0.2186,0.7155 0.1311,1.185 0.4153,1.1318 v 1.5053 l 0.1311,1.3453 0.6666,0.8114 0.743,0.2135 0.1859,0.4057 -0.0219,1.2812 -0.295,0.3203 0.131,0.4697 0.0328,0.1496 -0.0328,0.1601 -0.0327,0.1281 -0.1311,0.1494 -0.4153,3.598 v 1.3454 l -0.3169,0.7472 v 2.1353 l -0.0328,0.1496 -0.0655,0.4697 v 1.0997 l 0.0983,0.1815 -0.0656,0.1281 -0.0327,2.5304 -0.0657,0.1281 -0.0655,0.5018 0.1967,0.032 -0.0328,0.9715 -0.1639,0.4698 -0.153,3.3418 0.1202,2.3488 -0.1529,0.8435 0.1201,1.5374 -0.0874,0.4698 0.153,0.6192 -0.1202,0.3416 0.1857,5.0394 0.4481,2.9147 -0.1858,1.6548 0.2186,0.6513 -0.1639,0.6939 0.4262,0.7154 0.0218,0.5018 0.0328,0.1922 0.1639,0.7794 0.7321,1.6548 0.5792,0.4378 0.5464,1.0996 0.2514,0.5019 z m 6.6551,-18.9188 -0.0983,-0.3417 -0.612,0.1282 -0.7649,0.6832 -0.3498,0.598 -0.0655,0.1175 -0.1639,0.2882 -0.2186,0.032 -1.4097,2.2208 -0.1312,0.7153 -0.3824,0.3736 -0.6119,2.3489 -0.0874,0.9716 0.4152,1.3131 -0.1311,0.4378 0.1311,0.3736 0.3824,-0.0961 0.1531,0.0961 0.3605,-0.2242 0.0328,-0.0854 0.2841,-0.9395 -0.1966,-0.032 0.0983,-0.3096 0.164,-0.662 V 82.836 l 0.1529,-0.7259 0.0656,-0.3096 0.0656,-0.4057 1.0927,-2.9361 0.2186,-0.3523 0.1312,-0.2776 0.0327,-0.0321 0.3169,-0.5979 0.3279,-0.6512 0.2513,-0.5659 0.164,-0.1815 z m 15.6814,2.3808 0.5137,-0.128 -0.4809,2.0605 -0.0983,0.2243 -0.2186,0.3416 v 0.0961 l -0.5136,0.6833 -0.0983,0.3202 -0.1202,0.1496 -0.164,0.4057 -1.0272,1.4092 -0.3825,0.5338 -0.4808,0.3097 -0.2514,0.6299 -1.1583,1.153 -0.2841,0.3738 -0.1967,0.1601 -0.2185,0.1922 -1.1912,0.8114 -0.5136,0.5872 -2.1091,1.3773 -3.0379,1.2278 -0.1639,0.1174 -0.4152,0.1602 -0.5792,-0.0321 -1.9124,0.1602 -1.5737,-0.4698 -1.2457,-0.9075 -0.0655,-0.096 -0.5137,-0.4057 -0.3169,0.0319 -1.3113,-0.2775 -0.4262,-0.4699 -0.1202,-0.0319 -0.448,-0.6299 -0.3826,-0.2777 -0.1311,-0.1601 -0.1639,-0.032 -0.0656,-0.2136 -0.0874,-0.1601 -0.3934,-2.3168 0.2623,-1.0036 -0.1639,-0.5872 0.1311,-0.2242 0.3825,-1.6869 0.7977,-1.2491 -0.0328,-0.0961 0.0984,-0.1923 0.1311,-0.3415 0.3824,-0.6193 0.164,-0.2563 0.2514,-0.3736 0.131,-0.2777 0.5137,-0.5657 0.4808,-1.0357 0.0656,-0.1495 0.2186,-0.3844 0.6447,-0.7473 0.3169,-0.2456 0.2513,-0.2242 0.4481,-0.7153 2.0216,-2.1246 0.0656,-0.1282 0.2841,-0.2242 1.5737,-1.7509 3.2018,-2.6904 2.3385,-1.5909 2.7539,-1.3132 1.1146,-0.0961 0.0656,0.3096 -0.164,0.9076 -0.5464,1.5374 -1.1146,0.0641 -1.5408,0.7472 -0.448,0.598 -0.6995,0.1815 -1.4096,0.9395 -0.7103,0.5018 -0.1203,0.0641 -0.448,0.4057 -0.3497,0.3416 -0.3278,0.3737 -1.0272,1.1637 -1.661,2.3168 -0.3826,0.4378 -0.1311,0.4697 -0.5464,0.6193 -1.7921,4.1959 -0.5682,2.8079 v 0.726 l 0.3168,2.2528 -0.0984,0.064 -0.0327,0.1494 0.0984,0.2563 0.0983,0.0854 0.2186,-0.0213 0.1967,0.1174 0.2185,0.5338 0.4481,0.598 0.6775,0.4697 0.5464,0.2135 0.2513,0.2882 0.8633,0.0535 1.1583,-0.1495 v 0.0641 l 0.1531,0.0534 h 0.1638 l 0.1968,-0.0534 h 0.1201 l 0.2295,0.0854 0.7978,-0.3096 1.0272,-0.1602 1.6939,-0.8435 1.7265,-1.3452 0.9289,-0.6832 0.0983,-0.0962 0.2841,-0.2135 1.224,-1.5695 0.0983,-0.1281 0.1531,-0.1495 0.1966,-0.16 0.8961,-0.7795 0.4808,-0.9716 1.3442,-1.7829 0.2513,-0.4697 0.1311,-0.2457 z m 59.4146,7.7513 0.8305,3.2243 0.9617,2.4983 h -0.2186 l -1.06,-0.8114 -0.8633,-0.3738 -1.3114,-0.9715 -0.4152,-0.6192 -0.8305,-3.3525 v -0.9715 l -0.5136,-1.1851 -0.0328,-0.3096 -0.0328,-0.2563 0.0656,-0.032 -0.448,-2.0606 0.0874,-1.0356 -0.8633,-4.5588 -0.2841,-0.63 -0.2842,-0.1922 -0.1639,-0.0534 -0.2294,0.0534 -0.3498,0.4378 -0.3824,0.7259 -0.0656,0.0321 -0.1858,0.3096 -0.0983,0.4378 -0.0655,0.2775 -0.1968,0.4699 -0.1202,0.128 -0.8306,1.5374 -0.3278,0.8435 -0.0983,0.1494 -0.1858,0.2884 -0.2295,0.2775 -0.8304,2.2528 -0.0984,0.032 -0.2514,0.2135 -0.6119,1.3773 -0.8306,0.9075 -1.5626,0.8221 -0.6119,0.4591 -1.1585,0.5659 -0.601,0.032 -0.2294,-0.2777 -0.2841,-2.3487 0.0328,-0.2136 0.0983,-0.3202 h 0.0327 l -0.0983,-0.1175 -0.0655,0.0533 0.0983,-0.1494 -0.0328,-0.0961 0.0983,-0.0641 -0.131,-3.0321 0.0983,-0.4697 -0.1311,-0.0962 -0.164,-2.4342 0.0656,-0.1922 v -0.5018 l 0.0984,-0.8114 0.0655,-1.9111 -0.1312,-0.032 0.1312,-0.1495 0.0656,-0.1602 0.0327,-0.1281 -0.0327,-0.1494 -0.1968,-0.2242 0.2514,-2.4983 -0.2186,-0.5339 v -0.4057 l 0.1312,-0.9075 -0.1312,-0.1922 -0.1966,-0.2775 -0.0328,-0.0961 -0.2186,-0.1815 -0.4808,0.8114 -0.1968,0.1815 -0.0874,0.2882 -0.9943,2.3703 -0.0657,0.3202 -0.1966,0.1175 -0.3169,1.0996 -0.6121,0.9716 -1.6937,5.0927 -0.7322,1.6335 -0.1639,1.2812 -0.1639,0.1495 -0.2513,0.3202 0.1967,0.0962 -0.929,2.8399 -0.3605,0.63 0.1639,0.4697 -0.4153,0.6193 -0.0983,0.4698 -0.0983,0.128 -0.0547,0.1602 -0.2951,0.5872 -0.8961,0.9716 -0.1858,0.0641 -0.3933,0.1921 -0.2186,0.1495 -0.5464,0.4377 -0.1311,0.064 -0.2186,0.1923 -0.7321,0.0533 -0.2295,0.2242 -0.1967,0.064 -0.1858,0.0962 -0.2622,-0.2242 -0.2514,-2.7545 -0.0984,-0.1175 0.0984,-0.2242 0.0984,-0.2776 -0.0984,-1.3133 0.0328,-0.1921 0.1311,-0.1815 0.0328,-0.0641 -0.0983,-0.032 0.0327,-0.3416 h -0.0983 l 0.0983,-0.0641 0.0328,-2.7545 0.2186,-0.4698 -0.4481,-1.9111 0.0656,-0.2776 0.0984,-0.0321 -0.0328,-1.4413 0.0655,-0.5979 0.0328,-0.4591 0.0875,-1.0676 -0.1203,-1.185 0.1531,-0.1282 -0.1203,-0.1922 v -0.2135 l 0.3497,-0.0961 0.0328,-1.0677 -0.0984,-0.2776 -0.0983,-0.1601 -0.0983,0.032 -0.153,-1.4627 0.0655,-1.3132 -0.2623,-0.7901 -0.0327,-0.3096 0.0327,-0.1921 0.1312,-0.2136 0.0983,-0.9716 0.2514,-0.4697 0.7431,-0.3737 2.1418,-0.5018 0.0983,1.0037 0.3498,0.6192 0.0328,0.1922 -0.0984,0.3416 -0.0984,0.9075 -0.4479,0.4378 -0.1859,0.3202 0.1859,0.8435 -0.0985,0.2455 0.0328,0.4698 v 7.164 l -0.1529,0.3096 -0.0984,0.0961 0.0984,4.9432 0.0874,0.3096 0.3278,0.2563 0.1203,0.0319 0.295,-0.1921 0.1311,-0.2455 0.2513,-0.1923 0.2842,-0.7472 1.06,-1.8792 0.1638,-0.8754 0.7978,-1.8791 0.0984,-0.2135 0.284,-0.5659 0.0657,-0.1281 0.3824,-1.2492 0.164,-0.3416 0.1857,-0.1282 0.4153,-1.1316 0.2295,-0.7154 0.2841,-0.3096 -0.0656,-0.4057 0.1967,-0.4057 0.1312,-0.3523 0.0655,-0.0321 v -0.2135 l 0.1858,-0.4697 0.448,-1.2812 0.4809,-0.7154 -0.0328,-0.096 0.1311,-0.2242 0.6338,-0.8435 -0.1529,-0.1602 1.4424,-2.936 0.5683,-0.4378 1.2894,-0.4697 0.3498,-0.1815 0.0655,-0.0961 1.0162,-0.2242 0.3935,-0.2456 0.8961,-0.032 -0.0656,3.4698 -0.1312,0.7795 0.0985,0.5338 -0.0657,0.3417 0.164,0.1601 -0.4809,7.5376 0.0656,1.2491 -0.2294,0.7261 -0.1968,0.3736 h -0.1201 l 0.448,1.1211 0.0655,0.3416 0.1203,0.1922 0.1966,0.1281 0.1639,0.0321 0.1859,-0.064 0.4479,-0.7261 h 0.1968 l 0.9288,-1.3132 0.1203,-0.0533 0.0655,-0.3204 0.3278,-0.3096 0.6011,-2.4663 0.5791,-1.0036 0.2842,-0.8114 0.295,-0.4057 0.4153,-1.3452 0.3825,-0.8222 0.131,-0.1815 0.9836,-1.5054 0.0983,-0.0961 0.0984,-0.2455 0.0656,-1.0997 0.1638,-0.0533 0.0548,-0.1602 0.3278,-0.1922 0.5136,-0.064 0.5355,-0.3737 1.2566,-0.3737 0.8633,-0.0641 0.1858,-0.0961 h 0.1639 l 0.1967,0.0321 0.1202,0.1281 0.1312,4.5055 0.2513,1.0997 0.3278,5.1888 0.2842,1.1851 v 3.8542 z"/>
  <path id="path4" style="fill:#f07c00;fill-rule:evenodd" d="m 319.1699,77.8188 -0.8252,2.7226 h -0.15 l 0.002,0.354 -0.5857,0.354 -0.4305,1.5383 -0.399,0.2198 c -0.4343,0.6837 -0.9545,1.7092 -1.5608,3.0766 h -0.5874 l -0.757,1.1721 -0.4364,0.2198 7e-4,0.1464 c -1.1979,0.4029 -2.7716,0.5982 -4.7209,0.5982 -0.7129,-0.1587 -1.1635,-0.2807 -1.3636,-0.3541 l -0.4364,0.2198 h -0.7623 l -1.5782,-0.8301 -0.4489,0.2198 -0.1393,-0.4274 -0.5864,0.2076 -0.4015,-0.3541 h -0.5872 l 0.1364,-0.2198 -0.3629,-0.1343 c -0.8038,-0.9034 -1.456,-1.4406 -1.9441,-1.6115 -1.6964,-2.0999 -2.8548,-4.0778 -3.4753,-5.9334 -0.6081,-1.868 -0.9308,-4.1876 -0.9432,-6.9834 0.2942,-1.3064 0.4779,-2.1366 0.5764,-2.4662 l 0.6237,-0.2442 0.1464,-0.7935 1.1948,-1.111 h 0.2249 c 0.5524,-2.2342 1.2581,-3.7237 2.142,-4.4685 l 0.9882,0.2198 0.5829,-1.0011 0.9838,-0.757 -10e-4,-0.2075 2.9189,-1.1842 1.1766,0.4639 -9e-4,-0.2198 0.9882,0.2198 0.4399,0.5738 0.9894,0.5006 c 0.3538,0.879 0.9576,1.7824 1.8115,2.7225 l -0.8028,2.1365 -0.4006,-0.1709 -0.5866,0.1709 0.002,0.4273 h -0.5873 l -0.9908,-0.818 -0.3607,0.3907 -2.1957,0.7936 -0.439,-0.3663 -0.3608,0.3663 h -0.3999 l -0.8089,0.7447 0.005,1.0012 -1.5686,1.3307 -0.5822,1.172 -0.9862,0.2198 -0.3608,0.3541 -0.2207,0.9644 0.2302,1.1843 -0.4707,0.9279 c -0.0957,0.9766 -0.1421,1.7702 -0.1395,2.3685 0.004,0.9278 0.1458,1.8801 0.4126,2.8568 l 0.5908,0.7813 0.3682,1.3307 c 0.3504,0.0978 1.2791,1.0012 2.7987,2.7104 1.3009,0.3174 2.6269,0.6227 3.9904,0.9401 2.3743,0 3.9477,-0.2442 4.7204,-0.7203 l -0.002,-0.4273 0.3742,-0.1465 -0.001,-0.2442 c 2.2265,-2.3196 3.3426,-4.2364 3.3359,-5.7625 -0.006,-1.3551 -0.3377,-2.8934 -1.0077,-4.6149 -0.9019,-0.5006 -1.9525,-0.7082 -3.1517,-0.6104 l -0.215,-0.5739 h -0.3749 l -0.3608,0.3663 h -0.2249 l 0.004,0.9645 -0.4005,-0.1465 -1.423,0.354 9e-4,0.2198 -0.949,0.1465 -0.7701,1.0378 0.011,2.4661 0.404,0.9645 0.9648,0.5738 0.2115,-0.2198 0.9881,0.2198 0.3733,-0.3663 h 0.3623 c 0.561,-0.3296 1.0349,-0.5249 1.4222,-0.5615 l 1.2006,-2.5761 0.5883,0.2076 -0.4269,2.3685 -0.732,1.172 -0.2202,1.0743 -0.9852,0.464 0.002,0.3663 -1.1981,0.3539 -1.5751,-0.1464 -0.3768,-0.4273 -0.9889,-0.3907 c -0.2142,-0.3907 -0.6288,-0.9034 -1.2065,-1.5383 l -0.2275,-0.5738 -1.1798,-1.1842 0.2139,-2.4662 -0.4009,-0.2441 c -0.007,-1.4651 0.1881,-2.6738 0.5961,-3.6505 l 0.3743,-0.1465 0.5811,-1.3918 c 0.3359,-0.3419 1.0596,-0.5738 2.1836,-0.7203 l 0.5889,0.354 c 0.7859,-0.3052 1.3602,-0.4273 1.7228,-0.354 l 0.4728,-0.464 0.9482,-0.354 0.9881,0.2076 3.3841,2.2952 0.2143,0.4273 0.5515,0.3541 c 0.104,0.9156 0.3843,2.1365 0.8285,3.687 l 0.3634,0.2198 0.2272,0.5005 0.003,0.5983 z"/>
  <path id="path6" style="fill:#b1b3b4;fill-rule:evenodd" d="m 236.4157,101.395 c -0.003,-0.0979 0.0444,-0.1767 0.1473,-0.2387 0.1029,-0.0621 0.2272,-0.0931 0.3762,-0.0931 0.1702,0 0.3192,0.0657 0.447,0.1957 0.1775,0.1779 0.3354,0.2971 0.4739,0.3604 0.2945,0.13 0.722,0.1956 1.2845,0.1956 0.5358,0 1.036,-0.0775 1.4957,-0.2338 0.589,-0.2005 0.8835,-0.4796 0.8835,-0.8353 0,-0.2946 -0.2467,-0.5261 -0.7415,-0.6955 -0.4207,-0.1468 -0.9387,-0.2267 -1.5543,-0.2386 -0.5483,-0.0131 -1.015,-0.0943 -1.4,-0.2411 -0.4914,-0.1885 -0.7381,-0.4593 -0.7381,-0.8101 0,-0.4152 0.3514,-0.7947 1.0504,-1.1371 0.6689,-0.3232 1.361,-0.4855 2.0742,-0.4855 0.3371,0 0.7168,0.0382 1.139,0.1157 0.5606,0.1002 0.841,0.2278 0.841,0.3842 0,0.2052 -0.1543,0.3078 -0.4666,0.3078 -0.1384,0 -0.3816,-0.0251 -0.7275,-0.0752 -0.3478,-0.0501 -0.6157,-0.074 -0.8073,-0.0716 -0.5393,0.0048 -0.9988,0.0943 -1.3769,0.2685 -0.3883,0.1801 -0.5818,0.3973 -0.5818,0.6539 0,0.1933 0.2572,0.3304 0.7699,0.4092 0.19,0.0298 0.5589,0.0584 1.1071,0.0836 0.7932,0.0405 1.4124,0.2075 1.8596,0.5034 0.4098,0.2708 0.6138,0.6002 0.6138,0.9891 0,0.5549 -0.3814,0.9975 -1.1427,1.3291 -0.6617,0.2864 -1.43,0.4296 -2.3029,0.4296 -0.6351,0 -1.2153,-0.0812 -1.7423,-0.2446 -0.6441,-0.2005 -0.9722,-0.4761 -0.9812,-0.8256 z m 14.0645,-2.1071 c -0.0728,0 -0.158,-0.0024 -0.2573,-0.0071 -0.0977,-0.0049 -0.1846,-0.0073 -0.2573,-0.0073 -0.0798,0 -0.3158,0.0179 -0.7062,0.0526 l 0.0977,2.0665 0.005,0.1526 0.005,0.179 c 0.0142,0.5107 -0.1668,0.7648 -0.5447,0.7648 -0.1384,0 -0.2589,-0.0298 -0.362,-0.0906 -0.1029,-0.0597 -0.1526,-0.1361 -0.1526,-0.2267 0,-0.0883 0.005,-0.2219 0.0142,-0.3985 0.0107,-0.1778 0.016,-0.3103 0.016,-0.3985 l -0.1029,-2.0415 c -0.2537,-0.0071 -0.6387,-0.0263 -1.1551,-0.0597 -0.3087,-0.0274 -0.463,-0.1431 -0.463,-0.3459 0,-0.1027 0.048,-0.1874 0.142,-0.2553 0.0922,-0.0669 0.2129,-0.1015 0.3584,-0.1015 l 1.0911,0.0597 c 0,-0.1181 -0.007,-0.278 -0.0231,-0.4773 -0.016,-0.1993 -0.023,-0.3424 -0.023,-0.4319 0,-0.0979 0.0497,-0.1778 0.1508,-0.2422 0.0993,-0.0645 0.2218,-0.0966 0.3691,-0.0966 0.3105,0 0.4932,0.1717 0.5447,0.5142 0.0106,0.0859 0.0158,0.1897 0.0158,0.3114 l -0.0106,0.2028 -0.005,0.216 c 0.4294,-0.0371 0.6759,-0.0561 0.738,-0.0561 0.3602,0 0.5963,0.0119 0.7079,0.0358 0.2111,0.0465 0.3159,0.1551 0.3159,0.3281 0,0.1026 -0.0479,0.1873 -0.142,0.253 -0.0957,0.0668 -0.2182,0.1002 -0.3672,0.1002 z m 8.9615,0.9366 c 0,0.1682 0.002,0.42 0.005,0.7553 0.004,0.3352 0.005,0.5869 0.005,0.7552 0,0.0513 0.005,0.1289 0.0177,0.2338 0.0125,0.105 0.0177,0.1826 0.0177,0.2339 0,0.1003 -0.0496,0.1826 -0.1507,0.247 -0.0993,0.0644 -0.2236,0.0955 -0.369,0.0955 -0.2662,0 -0.4365,-0.1099 -0.5093,-0.3318 -0.4329,0.1516 -0.9314,0.2267 -1.4975,0.2267 -0.4524,0 -0.8286,-0.0668 -1.1267,-0.2016 -0.3299,-0.1492 -0.5251,-0.3675 -0.5872,-0.6539 -0.1366,-0.618 -0.2041,-1.168 -0.2041,-1.6501 0,-0.3197 0.0534,-0.6824 0.1562,-1.0905 0.0497,-0.2028 0.2129,-0.3042 0.4951,-0.3042 0.149,0 0.2731,0.0322 0.3725,0.0966 0.1012,0.0633 0.1508,0.1456 0.1508,0.2458 0,0.1073 -0.0248,0.278 -0.0744,0.5143 -0.0496,0.235 -0.0764,0.414 -0.0764,0.538 0,0.389 0.0195,0.7219 0.0585,0.9999 0.0373,0.2768 0.0941,0.4999 0.1704,0.667 0.1154,0.0429 0.2272,0.0739 0.3389,0.0966 0.11,0.0215 0.22,0.0334 0.3264,0.0334 0.4649,0 0.9545,-0.0501 1.4727,-0.1503 l -0.005,-0.7099 -0.0107,-0.6777 c 0,-0.5035 0.0319,-0.9402 0.0976,-1.3113 0.039,-0.2148 0.2077,-0.3209 0.5056,-0.3209 0.1491,0 0.2733,0.0322 0.3727,0.0978 0.1011,0.0645 0.1489,0.1468 0.142,0.2446 z m 9.2616,-1.0452 c -0.0407,0.3424 -0.062,0.6848 -0.062,1.0273 0,0.7767 0.0549,1.3625 0.1615,1.7587 0.007,0.0322 0.0106,0.0596 0.0106,0.0799 0,0.0943 -0.0481,0.1706 -0.1455,0.2315 -0.0976,0.0608 -0.2094,0.0907 -0.3371,0.0907 -0.2165,0 -0.3727,-0.1051 -0.4738,-0.315 -0.2502,0.1241 -0.5092,0.2172 -0.7771,0.2803 -0.2679,0.0621 -0.5482,0.0944 -0.8392,0.0944 -0.7168,0 -1.3111,-0.1612 -1.7831,-0.4833 -0.4863,-0.3281 -0.7276,-0.7493 -0.7276,-1.2648 0,-0.6227 0.2448,-1.1215 0.7347,-1.4961 0.4915,-0.3746 1.1282,-0.5632 1.9108,-0.5632 0.4027,0 0.7115,0.0418 0.9298,0.1265 l 0.4895,0.241 c 0.0481,-0.9807 0.1048,-1.6417 0.1704,-1.9818 0.0462,-0.2076 0.2041,-0.3114 0.4737,-0.3114 0.3159,0 0.4738,0.1134 0.4738,0.3388 0,0.3245 -0.0691,1.0392 -0.2094,2.1465 z m -2.3065,0.0907 c -0.5819,0 -1.0202,0.1157 -1.3112,0.3484 -0.2909,0.2315 -0.4364,0.581 -0.4364,1.0464 0,0.3006 0.1596,0.5595 0.4755,0.7767 0.3176,0.2159 0.6902,0.3245 1.116,0.3245 0.291,0 0.5375,-0.0358 0.738,-0.1086 0.1172,-0.0417 0.3105,-0.1383 0.5767,-0.2899 0.0514,-0.0298 0.1029,-0.0668 0.1507,-0.1086 l -0.0158,-0.6049 0.005,-0.4044 0.0106,-0.4129 c -0.1311,-0.1885 -0.3069,-0.3305 -0.5251,-0.4247 -0.2183,-0.0943 -0.4791,-0.142 -0.7842,-0.142 z m 7.947,-1.4294 c -0.1669,0 -0.3106,-0.0394 -0.4312,-0.1193 -0.1225,-0.0787 -0.1827,-0.1742 -0.1827,-0.2864 0,-0.1121 0.0602,-0.2075 0.1827,-0.2863 0.1206,-0.0787 0.2643,-0.1193 0.4312,-0.1193 0.1666,0 0.3086,0.0406 0.4293,0.1193 0.1189,0.0788 0.1792,0.1742 0.1792,0.2863 0,0.1122 -0.0603,0.2077 -0.1792,0.2864 -0.1207,0.0799 -0.2627,0.1193 -0.4293,0.1193 z m 0.2341,2.8384 c 0,0.1396 0.005,0.3484 0.0177,0.6277 0.0125,0.2779 0.0177,0.4867 0.0177,0.6276 0,0.1026 -0.0461,0.186 -0.14,0.2517 -0.0941,0.0644 -0.2166,0.0978 -0.3691,0.0978 -0.1491,0 -0.2714,-0.0334 -0.3672,-0.0978 -0.0942,-0.0657 -0.142,-0.1491 -0.142,-0.2517 0,-0.1409 -0.005,-0.3497 -0.0179,-0.6276 -0.0122,-0.2793 -0.0193,-0.4881 -0.0193,-0.6277 0,-0.2195 0.0176,-0.4927 0.0532,-0.8196 0.0337,-0.3282 0.0513,-0.6014 0.0513,-0.8197 0,-0.105 0.048,-0.1897 0.1438,-0.2553 0.094,-0.0656 0.2165,-0.0979 0.3654,-0.0979 0.1492,0 0.2716,0.0323 0.3674,0.0979 0.094,0.0656 0.1419,0.1503 0.1419,0.2553 0,0.2183 -0.0178,0.4915 -0.0514,0.8197 -0.0356,0.3269 -0.0515,0.6001 -0.0515,0.8196 z m 6.8876,1.7933 c -0.5819,0 -1.0824,-0.1443 -1.5028,-0.4331 -0.4666,-0.3221 -0.7132,-0.7541 -0.738,-1.2969 -0.0214,-0.5274 0.1773,-0.9903 0.5926,-1.3912 0.486,-0.4737 1.1603,-0.7099 2.0279,-0.7099 0.6921,0 1.2172,0.2136 1.5738,0.6396 0.2856,0.3447 0.4223,0.76 0.4115,1.2444 -0.0106,0.5177 -0.2109,0.9592 -0.6031,1.3243 -0.4436,0.4152 -1.0308,0.6228 -1.7619,0.6228 z m 0.3123,-3.1212 c -0.5091,-0.0024 -0.9067,0.1599 -1.1906,0.4892 -0.2252,0.2625 -0.3387,0.5631 -0.3387,0.902 0,0.3377 0.1365,0.6014 0.4115,0.7899 0.229,0.1563 0.4969,0.2338 0.8055,0.2338 0.3601,0 0.6707,-0.0883 0.9298,-0.2661 0.2945,-0.1956 0.4506,-0.4593 0.4684,-0.7934 0.0478,-0.902 -0.3141,-1.353 -1.0859,-1.3554 z m 14.8291,2.953 c -0.1313,0 -0.2556,-0.0369 -0.3691,-0.1121 -1.1479,-0.7612 -2.4219,-1.2743 -3.8254,-1.538 l 0.041,0.6861 0.0266,0.6884 c 0,0.1026 -0.0497,0.1873 -0.1491,0.2566 -0.0976,0.0692 -0.2217,0.1037 -0.3709,0.1037 -0.149,0 -0.2731,-0.0345 -0.3724,-0.1037 -0.0977,-0.0693 -0.1474,-0.154 -0.1474,-0.2566 0,-0.1849 -0.0141,-0.4594 -0.039,-0.8233 -0.0266,-0.365 -0.0391,-0.6395 -0.0391,-0.8232 0,-0.2148 0.0339,-0.5334 0.1029,-0.9581 0.0692,-0.4236 0.1047,-0.7421 0.1047,-0.9545 0,-0.1181 -0.016,-0.2948 -0.0497,-0.5273 -0.0319,-0.2327 -0.0496,-0.4094 -0.0496,-0.5275 0,-0.1336 0.0567,-0.2493 0.1668,-0.3495 0.1312,-0.1241 0.3141,-0.1802 0.5464,-0.1683 l 1.2526,0.0668 c 0.4738,0.0394 0.8747,0.117 1.1995,0.2339 1.4034,0.5011 2.106,1.1132 2.106,1.8351 0,0.3543 -0.2395,0.6681 -0.7169,0.9401 -0.3849,0.2196 -0.8658,0.3854 -1.4407,0.4999 1.0789,0.3891 1.8844,0.7994 2.4167,1.2301 0.0904,0.0752 0.1365,0.154 0.1365,0.2387 0,0.0978 -0.0532,0.1825 -0.1596,0.2541 -0.1048,0.0728 -0.2288,0.1086 -0.3708,0.1086 z m -3.3108,-4.621 -0.77,-0.0418 0.0514,0.4236 c 0.0248,0.1718 0.0373,0.3126 0.0373,0.4224 0,0.1861 -0.0231,0.4188 -0.0675,0.6956 l -0.1099,0.6956 c 0.0497,0 0.1242,0.0011 0.2271,0.0035 0.101,0.0024 0.1792,0.0036 0.2307,0.0036 0.8834,0 1.5454,-0.0799 1.9853,-0.2374 0.1952,-0.0728 0.3743,-0.167 0.5412,-0.284 0.1827,-0.13 0.2749,-0.2409 0.2749,-0.3316 0,-0.3234 -0.2732,-0.6253 -0.8215,-0.9056 -0.502,-0.2566 -1.0289,-0.4045 -1.579,-0.4439 z m 10.4787,4.744 c -0.7824,0 -1.4159,-0.1325 -1.902,-0.395 -0.5305,-0.2911 -0.7949,-0.6992 -0.7949,-1.2242 0,-0.6061 0.2182,-1.1132 0.6546,-1.5236 0.4755,-0.4474 1.1089,-0.6717 1.902,-0.6717 0.5767,0 1.0452,0.0656 1.4089,0.1968 0.447,0.1599 0.6705,0.4069 0.6705,0.741 0,0.2326 -0.195,0.445 -0.5872,0.6359 -0.1738,0.0835 -0.5412,0.2148 -1.1017,0.3914 l -1.9855,0.6323 c 0.1934,0.1934 0.4347,0.3389 0.7257,0.4367 0.2893,0.0978 0.6263,0.1467 1.0096,0.1467 0.2394,0 0.5198,-0.0298 0.8428,-0.0907 0.408,-0.0763 0.6724,-0.1777 0.7895,-0.3018 0.1189,-0.1253 0.2448,-0.1873 0.3797,-0.1873 0.1223,0 0.2306,0.031 0.3246,0.0931 0.0958,0.062 0.1438,0.1336 0.1438,0.2147 0,0.2589 -0.3105,0.4808 -0.9315,0.6682 -0.5287,0.1575 -1.0452,0.2375 -1.5489,0.2375 z m -0.1403,-3.1846 c -0.4223,0 -0.7735,0.1098 -1.0539,0.3305 -0.282,0.2196 -0.4915,0.5512 -0.6299,0.9939 l 1.5951,-0.5106 c 0.6283,-0.2041 1.0753,-0.3831 1.3415,-0.5346 -0.2982,-0.1861 -0.7152,-0.2792 -1.2528,-0.2792 z m 11.0571,3.1666 c -0.1917,0 -0.3388,-0.068 -0.4417,-0.2028 -0.181,-0.2351 -0.4524,-0.5131 -0.8163,-0.8352 l -0.9208,-0.8423 c -0.2004,0.1073 -0.5127,0.2577 -0.935,0.451 -0.0391,0.3615 -0.0568,0.7134 -0.0568,1.0558 0,0.1051 -0.0478,0.1898 -0.1436,0.2542 -0.0958,0.0656 -0.2184,0.099 -0.3674,0.099 -0.3494,0 -0.5233,-0.1586 -0.5233,-0.476 0,-0.1933 0.0196,-0.4833 0.0586,-0.8686 0.0408,-0.3854 0.0602,-0.6753 0.0602,-0.8686 0,-0.3544 0.007,-0.7588 0.0231,-1.2146 0.016,-0.4559 0.0231,-0.8579 0.0231,-1.2075 0,-0.1049 -0.007,-0.229 -0.0231,-0.371 -0.016,-0.142 -0.0231,-0.265 -0.0231,-0.3699 0,-0.105 0.0479,-0.1909 0.142,-0.2554 0.0958,-0.0655 0.2182,-0.0978 0.3673,-0.0978 0.1489,0 0.2714,0.0323 0.3672,0.0978 0.0941,0.0645 0.1419,0.1504 0.1419,0.2554 0,0.1073 0.009,0.2326 0.0266,0.3794 0.0179,0.1456 0.025,0.2721 0.025,0.3782 l -0.0356,1.1264 c -0.0177,0.4056 -0.0231,0.81 -0.016,1.2157 0.472,-0.2422 0.9263,-0.507 1.3627,-0.797 l 1.1427,-0.7934 c 0.1152,-0.0788 0.2377,-0.1181 0.3689,-0.1181 0.135,0 0.2574,0.0358 0.3673,0.1086 0.1083,0.0716 0.1632,0.155 0.1632,0.2505 0,0.0799 -0.0497,0.1575 -0.1507,0.235 -0.4258,0.3353 -0.951,0.6957 -1.5755,1.0799 l 1.1336,1.038 c 0.5306,0.4867 0.7949,0.8041 0.7949,0.9509 0,0.093 -0.0531,0.1742 -0.1633,0.241 -0.1082,0.068 -0.2341,0.1014 -0.3761,0.1014 z m 5.9188,-2.8909 -0.0779,1.7372 c 0,0.1849 -0.0125,0.4546 -0.041,0.8113 -0.0353,0.2326 -0.2038,0.3496 -0.5091,0.3496 -0.3406,0 -0.5091,-0.1193 -0.5091,-0.3568 0,-0.2816 0.0194,-0.7052 0.0567,-1.2706 0.0374,-0.5644 0.0567,-0.988 0.0567,-1.2707 0,-0.3675 0.009,-0.7887 0.0266,-1.2636 0.0179,-0.4737 0.0268,-0.8949 0.0268,-1.2635 0,-0.2326 0.1685,-0.3496 0.5091,-0.3496 0.3423,0 0.5146,0.117 0.5146,0.3496 0,0.3686 -0.009,0.7898 -0.0266,1.2635 -0.0178,0.4749 -0.0268,0.8961 -0.0268,1.2636 z m 8.8375,2.978 c -0.0656,0 -0.1845,-0.0513 -0.3583,-0.1539 -0.1562,-0.0955 -0.2716,-0.1802 -0.3478,-0.2541 -0.3336,0.1204 -0.6263,0.2124 -0.8783,0.2744 -0.2537,0.0608 -0.4649,0.0919 -0.6351,0.0919 -0.8109,0 -1.4018,-0.1539 -1.7726,-0.4618 -0.3495,-0.2887 -0.5251,-0.7313 -0.5251,-1.3279 0,-0.5632 0.2893,-1.0464 0.8658,-1.4473 0.5767,-0.4009 1.2669,-0.6014 2.067,-0.6014 0.3018,0 0.6388,0.0525 1.0132,0.1575 0.4719,0.1312 0.7061,0.2876 0.7061,0.4725 0,0.0621 -0.0337,0.1181 -0.1029,0.167 -0.0355,0.0896 -0.0621,0.2351 -0.0816,0.4379 -0.0177,0.2029 -0.0302,0.4617 -0.0337,0.7791 -0.004,0.2888 0.0266,0.5167 0.0887,0.6849 0.0354,0.1026 0.1437,0.3078 0.3282,0.6157 0.023,0.0417 0.0638,0.1038 0.1188,0.1849 l 0.0321,0.0596 c 0,0.0931 -0.0497,0.1694 -0.1455,0.2303 -0.0976,0.0609 -0.2095,0.0907 -0.339,0.0907 z m -1.0805,-2.4292 c 0,-0.1002 0.009,-0.2088 0.0284,-0.327 0.0195,-0.1168 0.0479,-0.2422 0.0851,-0.3758 -0.1276,-0.0441 -0.2377,-0.0763 -0.3299,-0.0978 -0.0905,-0.0203 -0.1651,-0.031 -0.22,-0.031 -0.5376,0 -1.0007,0.1467 -1.3912,0.4427 -0.3902,0.2946 -0.5835,0.6335 -0.5835,1.0188 0,0.3818 0.0993,0.6682 0.2997,0.8591 0.2023,0.1909 0.5039,0.2863 0.9049,0.2863 0.3337,0 0.6157,-0.0405 0.8481,-0.1217 0.1243,-0.044 0.2999,-0.1323 0.5251,-0.266 -0.1116,-0.6168 -0.1667,-1.0798 -0.1667,-1.3876 z m 12.2513,2.4889 c -0.2839,0 -0.4506,-0.1014 -0.4987,-0.3042 -0.0621,-0.2566 -0.1259,-0.6169 -0.188,-1.0834 l -0.1756,-1.0834 c -0.0355,-0.1611 -0.0941,-0.3186 -0.1775,-0.4725 -0.117,-0.2088 -0.2465,-0.3137 -0.3849,-0.3137 -0.1278,0 -0.3674,0.0727 -0.7168,0.2195 -0.3336,0.136 -0.5519,0.2433 -0.6548,0.3257 -0.004,0.2184 0.005,0.4378 0.0249,0.6562 l 0.1561,0.9342 c 0.0656,0.3675 0.0994,0.6718 0.0994,0.9116 0,0.1026 -0.0479,0.1873 -0.1437,0.2541 -0.0941,0.0656 -0.2165,0.099 -0.3656,0.099 -0.149,0 -0.2714,-0.0334 -0.3672,-0.099 -0.0941,-0.0668 -0.1419,-0.1515 -0.1419,-0.2541 0,-0.2816 -0.0427,-0.698 -0.1279,-1.2493 -0.0851,-0.5512 -0.1277,-0.9675 -0.1277,-1.2491 0,-0.247 -0.0514,-0.4403 -0.156,-0.5775 -0.2414,0.0752 -0.488,0.1957 -0.7381,0.3639 l -0.6123,0.4618 c -0.0567,0.056 -0.1436,0.1288 -0.266,0.2194 0,0.1396 -0.0195,0.346 -0.0569,0.6193 -0.0388,0.272 -0.0567,0.4737 -0.0567,0.6049 0,0.0692 0.0159,0.1671 0.0497,0.2935 0.032,0.1253 0.048,0.216 0.048,0.272 0,0.0955 -0.0516,0.1766 -0.158,0.2411 -0.1064,0.0656 -0.2288,0.0978 -0.3708,0.0978 -0.3921,0 -0.5873,-0.2995 -0.5873,-0.8985 0,-0.1395 0.0177,-0.3483 0.0568,-0.6251 0.0372,-0.2768 0.0568,-0.4856 0.0568,-0.6253 0,-0.1241 -0.016,-0.309 -0.0498,-0.5559 -0.0319,-0.247 -0.0496,-0.4331 -0.0496,-0.5596 0,-0.5285 0.1775,-0.7934 0.5305,-0.7934 0.1349,0 0.259,0.0393 0.3727,0.1192 0.1117,0.0789 0.1685,0.1647 0.1685,0.2578 0,0.0454 -0.009,0.1133 -0.0266,0.2064 -0.0179,0.093 -0.025,0.1647 -0.025,0.2136 l 0.009,0.3675 c 0.181,-0.2494 0.4454,-0.4749 0.7966,-0.6766 0.3496,-0.2015 0.6475,-0.303 0.8943,-0.303 0.5428,0 0.9173,0.1825 1.1212,0.5452 0.1916,-0.1694 0.4188,-0.297 0.6814,-0.3818 0.2644,-0.0858 0.5643,-0.1276 0.9049,-0.1276 0.5783,0 0.974,0.2088 1.1852,0.6288 0.0407,0.0835 0.1118,0.4117 0.2128,0.9819 0.0976,0.4009 0.2218,1.0691 0.3745,2.0033 0.0106,0.093 -0.0373,0.1718 -0.1402,0.2375 -0.1048,0.0655 -0.2308,0.0978 -0.3797,0.0978 z m 9.3824,-3.4076 -1.7992,2.6141 c -0.4437,0.636 -0.7825,1.1693 -1.0185,1.5977 l -0.3424,0.6776 c -0.0906,0.1683 -0.2466,0.2518 -0.4683,0.2518 -0.1456,0 -0.2715,-0.0322 -0.3762,-0.0955 -0.1064,-0.0644 -0.1598,-0.1444 -0.1598,-0.2398 0,-0.2326 0.3744,-0.908 1.1232,-2.0235 l -1.8612,-2.409 -0.2342,-0.2553 c -0.0923,-0.1074 -0.1401,-0.1969 -0.1401,-0.2685 0,-0.0954 0.0549,-0.1801 0.165,-0.2517 0.1081,-0.0728 0.2305,-0.1086 0.3654,-0.1086 0.1597,0 0.2822,0.0406 0.3691,0.1229 0.5889,0.5488 1.2224,1.3328 1.8966,2.3481 l 0.7701,-1.2051 c 0.2767,-0.4176 0.5447,-0.7767 0.8001,-1.0774 0.1118,-0.13 0.2574,-0.1956 0.4365,-0.1956 0.1419,0 0.2679,0.0334 0.378,0.1013 0.1081,0.0681 0.1632,0.148 0.1632,0.2411 0,0.0513 -0.0231,0.1097 -0.0673,0.1754 z"/>
  <rect transform="matrix(1, 0, 0, 1.000002, -270.351593, 152.48221)" x="559.37" y="210.853" width="117.625" height="15.683" style="fill: rgb(216, 216, 216);"/>
</svg>